<svg width="200" height="200" viewBox="0 0 200 200" fill="none" xmlns="http://www.w3.org/2000/svg">
<path d="M34.7725 84H19.6241C18.153 84 17 85.2062 17 86.6939C17 88.1816 18.153 89.3878 19.6241 89.3878H24.5543V112.346C24.5543 113.794 25.7471 115 27.1784 115C28.6495 115 29.8423 113.794 29.8423 112.346V89.3878H34.7725C36.2436 89.3878 37.3966 88.1816 37.3966 86.6939C37.3966 85.2062 36.2436 84 34.7725 84Z" fill="white"/>
<path d="M57.8479 108.044L50.5321 85.8093C50.1743 84.7237 49.1405 84 47.9875 84H46.2381C45.1248 84 44.0911 84.7237 43.7333 85.8093L36.3778 108.044C35.9404 109.451 36.6561 110.939 38.0477 111.422C39.4392 111.864 40.9103 111.14 41.3874 109.733L41.9441 108.125H52.2815L52.7984 109.733C53.196 110.818 54.19 111.582 55.343 111.582C56.178 111.582 56.9732 111.14 57.49 110.457C57.9671 109.773 58.1262 108.848 57.8479 108.044ZM43.6935 102.777L47.1128 92.4838L50.5321 102.777H43.6935Z" fill="white"/>
<path d="M80.526 95.0973H75.1187C73.6476 95.0973 72.4548 96.3035 72.4548 97.7912C72.4548 99.2789 73.6476 100.485 75.1187 100.485H77.8621V104.305C76.4307 105.551 74.6018 106.195 72.6933 106.195H72.1367C67.6837 106.195 64.1053 102.576 64.1053 98.0726V97.5097C64.1053 93.0065 67.6837 89.3878 72.1367 89.3878H72.6933C74.244 89.3878 75.7548 89.8301 77.0669 90.6744C78.1006 91.358 79.4524 91.2776 80.3669 90.4332C80.9633 89.9105 81.2814 89.1064 81.2019 88.3022C81.1621 87.4578 80.7248 86.7341 80.0488 86.2516C77.8621 84.8042 75.3175 84.0402 72.6933 84.0402H72.1367C64.7812 84.0402 58.8173 90.0713 58.8173 97.5097V98.0726C58.8173 105.511 64.7812 111.542 72.1367 111.542H72.6933C76.391 111.542 79.9296 110.014 82.4742 107.24C82.9115 106.757 83.1898 106.114 83.1898 105.431V97.7912C83.1898 96.3035 81.9971 95.0973 80.526 95.0973Z" fill="white"/>
<path d="M108.87 95.0973H103.463C101.992 95.0973 100.799 96.3035 100.799 97.7912C100.799 99.2789 101.992 100.485 103.463 100.485H106.206V104.305C104.775 105.551 102.946 106.195 101.037 106.195H100.481C96.0278 106.195 92.4494 102.576 92.4494 98.0726V97.5097C92.4494 93.0065 96.0278 89.3878 100.481 89.3878H101.037C102.588 89.3878 104.099 89.8301 105.411 90.6744C106.445 91.358 107.797 91.2776 108.711 90.4332C109.307 89.9105 109.626 89.1064 109.546 88.3022C109.506 87.4578 109.069 86.7341 108.393 86.2516C106.206 84.8042 103.662 84.0402 101.037 84.0402H100.481C93.1253 84.0402 87.1614 90.0713 87.1614 97.5097V98.0726C87.1614 105.511 93.1253 111.542 100.481 111.542H101.037C104.735 111.542 108.274 110.014 110.818 107.24C111.256 106.757 111.534 106.114 111.534 105.431V97.7912C111.534 96.3035 110.341 95.0973 108.87 95.0973Z" fill="white"/>
<path d="M137.095 108.044L129.779 85.8093C129.421 84.7237 128.388 84 127.235 84H125.485C124.372 84 123.338 84.7237 122.98 85.8093L115.625 108.044C115.187 109.451 115.903 110.939 117.295 111.422C118.686 111.864 120.157 111.14 120.635 109.733L121.191 108.125H131.529L132.045 109.733C132.443 110.818 133.437 111.582 134.59 111.582C135.425 111.582 136.22 111.14 136.737 110.457C137.214 109.773 137.373 108.848 137.095 108.044ZM122.941 102.777L126.36 92.4838L129.779 102.777H122.941Z" fill="white"/>
<path d="M154.766 102.857C158.345 101.249 160.611 97.7108 160.571 93.7704C160.532 88.3424 156.039 84 150.631 84H143.872C142.401 84 141.248 85.2062 141.248 86.6939V108.888C141.248 110.376 142.401 111.582 143.872 111.582C145.343 111.582 146.536 110.376 146.536 108.888V103.702H148.763L153.852 110.497C154.329 111.18 155.124 111.582 155.959 111.582C156.953 111.582 157.868 110.979 158.345 110.095C158.782 109.17 158.663 108.084 158.066 107.28L154.766 102.857ZM150.87 98.3139H146.536V89.3878H150.87C153.295 89.3878 155.283 91.3982 155.283 93.8508C155.283 96.3437 153.295 98.3139 150.87 98.3139Z" fill="white"/>
<path d="M180.376 84H165.228C163.756 84 162.603 85.2062 162.603 86.6939C162.603 88.1816 163.756 89.3878 165.228 89.3878H170.158V108.888C170.158 110.376 171.35 111.582 172.782 111.582C174.253 111.582 175.446 110.376 175.446 108.888V89.3878H180.376C181.847 89.3878 183 88.1816 183 86.6939C183 85.2062 181.847 84 180.376 84Z" fill="white"/>
</svg>
