<?xml version="1.0" encoding="utf-8"?>
<!-- Generator: Adobe Illustrator 24.3.0, SVG Export Plug-In . SVG Version: 6.00 Build 0)  -->
<svg version="1.1" id="Layer_1" xmlns="http://www.w3.org/2000/svg" xmlns:xlink="http://www.w3.org/1999/xlink" x="0px" y="0px"
	 viewBox="0 0 50 50" style="enable-background:new 0 0 50 50;" xml:space="preserve">
<style type="text/css">
	.st0{fill-rule:evenodd;clip-rule:evenodd;fill:url(#SVGID_1_);}
</style>
<linearGradient id="SVGID_1_" gradientUnits="userSpaceOnUse" x1="5.2431" y1="30.1547" x2="50.9779" y2="23.8987" gradientTransform="matrix(1 0 0 -1 0 52)">
	<stop  offset="0" style="stop-color:#85CFE8"/>
	<stop  offset="1" style="stop-color:#4C95C5"/>
</linearGradient>
<path class="st0" d="M37.8,7c4.1,0,7.3,3.3,7.3,7.4c0,1.3-0.3,2.6-1,3.7L31.4,40.2c-2,3.5-6.5,4.7-10,2.7c-1.1-0.6-2-1.6-2.7-2.7
	L6,18.1C4,14.5,5.2,10,8.7,8c1.1-0.6,2.4-1,3.7-1H37.8z M32.7,14.2H17.4c-0.5,0-1,0.1-1.5,0.4c-1.4,0.8-1.9,2.6-1.1,4.1L22.5,32
	c0.3,0.5,0.6,0.8,1.1,1.1c1.4,0.8,3.2,0.3,4-1.1l7.6-13.4c0.3-0.5,0.4-1,0.4-1.5C35.6,15.5,34.3,14.2,32.7,14.2z"/>
</svg>
