<svg width="50" height="50" viewBox="0 0 50 50" fill="none" xmlns="http://www.w3.org/2000/svg">
<path fill-rule="evenodd" clip-rule="evenodd" d="M37.7515 7C41.8032 7 45.0878 10.2992 45.0878 14.369C45.0878 15.6625 44.7488 16.9333 44.1049 18.0535L31.398 40.1605C29.3721 43.685 24.8853 44.8926 21.3763 42.8577C20.2611 42.2109 19.335 41.2807 18.6911 40.1605L5.98411 18.0535C3.95823 14.529 5.16048 10.0221 8.6694 7.98726C9.78467 7.34049 11.0498 7 12.3376 7H37.7515ZM32.6687 14.1926H17.4203C16.9052 14.1926 16.3992 14.3298 15.9531 14.5905C14.5495 15.4107 14.0686 17.2272 14.879 18.6478L22.5031 32.0134C22.7607 32.4649 23.1311 32.8398 23.5772 33.1005C24.9808 33.9207 26.7755 33.434 27.5859 32.0134L35.2101 18.6478C35.4676 18.1962 35.6032 17.6841 35.6032 17.1627C35.6032 15.5223 34.2894 14.1926 32.6687 14.1926Z" fill="url(#paint0_linear_1441:16682)"/>
<defs>
<linearGradient id="paint0_linear_1441:16682" x1="12.2779" y1="-29.583" x2="58.0127" y2="-23.327" gradientUnits="userSpaceOnUse">
<stop stop-color="#85CFE8"/>
<stop offset="1" stop-color="#4C95C5"/>
</linearGradient>
</defs>
</svg>
