<?xml version="1.0" standalone="no"?>
<!DOCTYPE svg PUBLIC "-//W3C//DTD SVG 20010904//EN"
 "http://www.w3.org/TR/2001/REC-SVG-20010904/DTD/svg10.dtd">
<svg version="1.0" xmlns="http://www.w3.org/2000/svg"
 width="700.000000pt" height="700.000000pt" viewBox="0 0 700.000000 700.000000"
 preserveAspectRatio="xMidYMid meet">
<metadata>
Created by potrace 1.14, written by Peter Selinger 2001-2017
</metadata>
<g transform="translate(0.000000,700.000000) scale(0.100000,-0.100000)"
fill="#000000" stroke="none">
<path d="M1257 6674 c-1 -1 -40 -4 -87 -7 -47 -4 -98 -9 -115 -12 -537 -105
-931 -491 -1040 -1020 -24 -117 -16 -457 13 -566 40 -147 100 -278 231 -501 9
-15 136 -236 282 -490 147 -255 317 -551 379 -658 218 -377 533 -926 557 -970
14 -25 40 -70 58 -100 18 -30 42 -72 53 -92 12 -20 91 -159 177 -308 86 -149
164 -286 174 -303 10 -18 71 -124 136 -237 65 -113 168 -290 228 -395 140
-243 180 -300 292 -410 247 -245 543 -369 885 -370 165 0 209 5 341 39 294 77
553 258 729 511 15 22 217 371 450 775 232 404 457 796 500 870 138 238 342
594 363 630 10 19 50 89 89 155 38 66 73 127 78 135 5 8 24 42 43 75 19 33 44
76 55 96 36 64 262 459 352 614 48 83 98 170 112 195 29 53 47 84 117 203 28
49 51 92 51 97 0 5 3 10 8 12 21 9 131 233 166 338 46 139 60 233 60 400 1
223 -33 376 -124 565 -193 401 -580 674 -1022 721 -49 5 -4585 13 -4591 8z
m3723 -1283 c91 -31 143 -64 210 -131 126 -126 179 -320 135 -491 -18 -68 -48
-126 -207 -404 -63 -110 -126 -220 -140 -245 -14 -25 -41 -72 -60 -105 -20
-33 -46 -80 -60 -105 -14 -25 -89 -157 -168 -295 -79 -137 -154 -270 -168
-295 -13 -25 -28 -49 -32 -55 -4 -5 -21 -35 -38 -65 -16 -30 -65 -116 -107
-190 -42 -74 -87 -153 -100 -175 -12 -22 -69 -121 -125 -220 -57 -99 -112
-196 -123 -215 -63 -115 -96 -161 -151 -215 -97 -96 -213 -143 -351 -143 -141
0 -253 47 -355 148 -53 52 -86 101 -170 250 -58 101 -109 192 -115 202 -5 9
-41 72 -80 140 -38 68 -74 130 -80 139 -5 9 -19 32 -29 50 -10 19 -118 207
-239 419 -120 212 -231 405 -245 430 -14 25 -87 153 -162 285 -75 132 -149
262 -163 288 -15 26 -33 58 -41 70 -65 99 -138 253 -155 321 -16 63 -12 187 6
251 54 184 210 331 389 368 48 9 379 12 1460 11 l1399 -1 65 -22z"/>
</g>
</svg>
