<?xml version="1.0" standalone="no"?>
<!DOCTYPE svg PUBLIC "-//W3C//DTD SVG 20010904//EN"
 "http://www.w3.org/TR/2001/REC-SVG-20010904/DTD/svg10.dtd">
<svg version="1.0" xmlns="http://www.w3.org/2000/svg"
 width="700.000000pt" height="700.000000pt" viewBox="0 0 700.000000 700.000000"
 preserveAspectRatio="xMidYMid meet">
<metadata>
Created by potrace 1.14, written by Peter Selinger 2001-2017
</metadata>
<g transform="translate(0.000000,700.000000) scale(0.100000,-0.100000)"
fill="#000000" stroke="none">
<path d="M1769 6996 c-2 -2 -64 -7 -137 -10 -73 -4 -138 -9 -145 -11 -6 -2
-39 -6 -72 -9 -33 -3 -69 -8 -80 -10 -11 -2 -40 -7 -65 -11 -42 -6 -200 -45
-245 -60 -234 -78 -473 -243 -640 -441 -92 -110 -101 -123 -152 -214 -82 -144
-146 -315 -168 -445 -2 -16 -9 -53 -14 -82 -6 -29 -13 -74 -16 -100 -3 -26 -8
-62 -10 -79 -16 -119 -20 -482 -20 -2034 0 -1589 3 -1863 21 -2017 34 -294 77
-453 171 -638 32 -62 126 -212 142 -225 4 -3 17 -18 30 -35 95 -125 262 -264
426 -356 99 -56 258 -119 334 -134 13 -2 30 -6 39 -9 9 -3 31 -8 47 -11 71
-12 163 -27 195 -31 19 -2 49 -6 65 -8 17 -3 91 -8 165 -13 164 -10 3536 -11
3705 -1 444 26 713 102 970 274 276 185 498 484 586 792 26 91 53 230 65 332
3 30 8 64 10 74 28 149 28 3883 0 4032 -2 10 -7 44 -10 74 -8 70 -22 149 -41
235 -57 261 -185 496 -378 694 -237 243 -529 388 -877 436 -25 3 -52 8 -60 10
-8 2 -53 7 -100 10 -47 4 -101 9 -120 12 -38 6 -3615 15 -3621 9z"/>
</g>
</svg>
